<?xml version="1.0" encoding="utf-8"?>
<!-- Generator: Adobe Illustrator 24.3.0, SVG Export Plug-In . SVG Version: 6.00 Build 0)  -->
<svg version="1.1" id="Layer_1" xmlns="http://www.w3.org/2000/svg" xmlns:xlink="http://www.w3.org/1999/xlink" x="0px" y="0px"
	 viewBox="0 0 24 24" style="enable-background:new 0 0 24 24;" xml:space="preserve">
<path d="M12,2c-4.7,0-8.5,3.8-8.5,8.5c0.1,2.5,1.2,4.8,3,6.4c1.1,1.2,4.7,4.4,4.9,4.5L12,22l0.6-0.5c0.4-0.4,4-3.7,4.4-4
	c2.4-2.4,3.5-4.6,3.5-7C20.5,5.8,16.7,2,12,2z M15.8,16.3c-0.2,0.2-2.2,2-3.8,3.4c-1-0.9-2.9-2.6-3.9-3.6l5.8-5.8v4.4l1.4,0V7.9
	l-6.8,0v1.4h4.4l-5.8,5.8c-1.1-1.3-1.8-2.9-1.9-4.6c0-3.7,3-6.8,6.8-6.8c3.7,0,6.8,3,6.8,6.8C18.8,12.4,17.8,14.3,15.8,16.3z"/>
</svg>
