<svg xmlns="http://www.w3.org/2000/svg" version="1.1" width="3300" height="2000"><g id="Notes"><style>
    text {
      font-family: monospace;
      text-anchor: middle;
    }
    text.emphasis {
      font-weight:bold;
    }
    text.lanchor {
      text-anchor: start;
    }
  </style><rect height="2200" id="artboard" fill="white" width="3300" x="0" y="0"/><line id="" style="fill:none;stroke:black;stroke-width:0.5;" x1="263" x2="3036" y1="292" y2="292"/><text class="lanchor emphasis" transform="matrix(1 0 0 1 263 322)">Weight/Scale Variations</text><text transform="matrix(1 0 0 1 559.711 322)">Ultralight</text><text transform="matrix(1 0 0 1 856.422 322)">Thin</text><text transform="matrix(1 0 0 1 1153.13 322)">Light</text><text transform="matrix(1 0 0 1 1449.84 322)">Regular</text><text transform="matrix(1 0 0 1 1746.56 322)">Medium</text><text transform="matrix(1 0 0 1 2043.27 322)">Semibold</text><text transform="matrix(1 0 0 1 2339.98 322)">Bold</text><text transform="matrix(1 0 0 1 2636.69 322)">Heavy</text><text transform="matrix(1 0 0 1 2933.4 322)">Black</text><text id="template-version" style="text-anchor: end;" transform="matrix(1 0 0 1 3036 1933)">Template v.1.0</text><text class="lanchor" transform="matrix(1 0 0 1 263 726)">Small</text><text class="lanchor" transform="matrix(1 0 0 1 263 1156)">Medium</text><text class="lanchor" transform="matrix(1 0 0 1 263 1586)">Large</text></g><g id="Guides"><g id="H-reference" style="fill:#27AAE1;stroke:none;" transform="matrix(1 0 0 1 339 696)"><path d="M 54.9316 0 L 57.666 0 L 30.5664 -70.459 L 28.0762 -70.459 L 0.976562 0 L 3.66211 0 L 12.9395 -24.4629 L 45.7031 -24.4629 Z M 29.1992 -67.0898 L 29.4434 -67.0898 L 44.8242 -26.709 L 13.8184 -26.709 Z"/></g><line id="Baseline-S" style="fill:none;stroke:#27AAE1;opacity:1;stroke-width:0.577;" x1="263" x2="3036" y1="696" y2="696"/><line id="Capline-S" style="fill:none;stroke:#27AAE1;opacity:1;stroke-width:0.577;" x1="263" x2="3036" y1="625.541" y2="625.541"/><g id="H-reference" style="fill:#27AAE1;stroke:none;" transform="matrix(1 0 0 1 339 1126)"><path d="M 54.9316 0 L 57.666 0 L 30.5664 -70.459 L 28.0762 -70.459 L 0.976562 0 L 3.66211 0 L 12.9395 -24.4629 L 45.7031 -24.4629 Z M 29.1992 -67.0898 L 29.4434 -67.0898 L 44.8242 -26.709 L 13.8184 -26.709 Z"/></g><line id="Baseline-M" style="fill:none;stroke:#27AAE1;opacity:1;stroke-width:0.577;" x1="263" x2="3036" y1="1126" y2="1126"/><line id="Capline-M" style="fill:none;stroke:#27AAE1;opacity:1;stroke-width:0.577;" x1="263" x2="3036" y1="1055.54" y2="1055.54"/><g id="H-reference" style="fill:#27AAE1;stroke:none;" transform="matrix(1 0 0 1 339 1556)"><path d="M 54.9316 0 L 57.666 0 L 30.5664 -70.459 L 28.0762 -70.459 L 0.976562 0 L 3.66211 0 L 12.9395 -24.4629 L 45.7031 -24.4629 Z M 29.1992 -67.0898 L 29.4434 -67.0898 L 44.8242 -26.709 L 13.8184 -26.709 Z"/></g><line id="Baseline-L" style="fill:none;stroke:#27AAE1;opacity:1;stroke-width:0.577;" x1="263" x2="3036" y1="1556" y2="1556"/><line id="Capline-L" style="fill:none;stroke:#27AAE1;opacity:1;stroke-width:0.577;" x1="263" x2="3036" y1="1485.54" y2="1485.54"/><rect height="119.336" id="left-margin" style="fill:darkred;stroke:none;opacity:0.4;" width="12.4512" x="1394.06" y="1030.79"/><rect height="119.336" id="right-margin" style="fill:darkgreen;stroke:none;opacity:0.4;" width="12.4512" x="1502.5112" y="1030.79"/><rect x="1406.5112" y="1045" width="96" height="96" fill="none" stroke="blue" stroke-dasharray="5"/><rect x="1394.06" y="1030.79" width="120.9024" height="119.336" fill="none" stroke="blue"/></g><g id="Symbols"><g id="Bold-L" transform="matrix(1 0 0 1 2266 1556)"><path d="M77.378 33.301 Q63.165 33.301 50.691 27.899 Q38.216 22.498 28.864 13.145 Q19.511 3.793 14.19 -8.704 Q8.869 -21.201 8.869 -35.552 Q8.869 -49.581 14.239 -62.054 Q19.609 -74.526 28.931 -83.822 Q38.252 -93.118 50.731 -98.52 Q63.21 -103.922 77.404 -103.922 Q91.598 -103.922 104.056 -98.529 Q116.515 -93.136 125.821 -83.855 Q135.127 -74.575 140.61 -62.078 Q146.093 -49.581 146.093 -35.552 Q146.093 -21.201 140.706 -8.679 Q135.32 3.843 125.971 13.137 Q116.622 22.431 104.106 27.866 Q91.59 33.301 77.378 33.301 Z M77.4 18.144 Q99.713 18.144 115.243 2.533 Q130.774 -13.078 130.774 -35.552 Q130.774 -44.222 128.032 -52.465 Q125.291 -60.707 119.97 -67.48 L45.311 7.018 Q51.807 12.813 60.196 15.478 Q68.585 18.144 77.4 18.144 Z M34.991 -3.464  109.328 -77.961 Q102.364 -83.351 94.289 -85.977 Q86.214 -88.604 77.4 -88.604 Q55.087 -88.604 39.557 -73.175 Q24.026 -57.745 24.026 -35.552 Q24.026 -26.682 26.975 -18.474 Q29.924 -10.266 34.991 -3.464 Z"/></g><g id="Semibold-L" transform="matrix(1 0 0 1 1970.27 1556)"><path d="M77.387 31.549 Q63.535 31.549 51.367 26.287 Q39.198 21.025 30.126 11.953 Q21.054 2.881 15.837 -9.3 Q10.621 -21.482 10.621 -35.412 Q10.621 -49.161 15.865 -61.328 Q21.109 -73.496 30.164 -82.536 Q39.218 -91.576 51.389 -96.838 Q63.561 -102.1 77.402 -102.1 Q91.244 -102.1 103.403 -96.843 Q115.563 -91.586 124.609 -82.555 Q133.655 -73.523 138.963 -61.342 Q144.27 -49.161 144.27 -35.412 Q144.27 -21.482 139.017 -9.286 Q133.764 2.91 124.694 11.949 Q115.624 20.988 103.432 26.268 Q91.239 31.549 77.387 31.549 Z M77.4 18.775 Q99.993 18.775 115.699 3.023 Q131.405 -12.728 131.405 -35.412 Q131.405 -44.566 128.383 -53.162 Q125.361 -61.759 119.69 -68.812 L43.909 6.877 Q50.736 12.887 59.438 15.831 Q68.14 18.775 77.4 18.775 Z M35.272 -1.921  110.8 -77.541 Q103.639 -83.321 95.137 -86.278 Q86.635 -89.235 77.4 -89.235 Q54.807 -89.235 39.101 -73.586 Q23.395 -57.938 23.395 -35.412 Q23.395 -26.121 26.604 -17.521 Q29.813 -8.921 35.272 -1.921 Z"/></g><g id="Medium-L" transform="matrix(1 0 0 1 1674.31 1556)"><path d="M77.395 30.234 Q63.813 30.234 51.873 25.078 Q39.934 19.921 31.072 11.059 Q22.21 2.198 17.073 -9.747 Q11.936 -21.692 11.936 -35.307 Q11.936 -48.845 17.085 -60.784 Q22.234 -72.723 31.088 -81.571 Q39.943 -90.419 51.883 -95.576 Q63.823 -100.733 77.401 -100.733 Q90.978 -100.733 102.914 -95.578 Q114.85 -90.424 123.7 -81.579 Q132.551 -72.735 137.727 -60.79 Q142.903 -48.845 142.903 -35.307 Q142.903 -21.692 137.75 -9.741 Q132.597 2.21 123.736 11.057 Q114.875 19.905 102.926 25.07 Q90.977 30.234 77.395 30.234 Z M77.4 19.248 Q100.204 19.248 116.041 3.392 Q131.878 -12.465 131.878 -35.307 Q131.878 -44.823 128.646 -53.685 Q125.414 -62.548 119.479 -69.811 L42.858 6.772 Q49.932 12.943 58.869 16.095 Q67.806 19.248 77.4 19.248 Z M35.482 -0.765  111.904 -77.225 Q104.595 -83.299 95.773 -86.503 Q86.951 -89.708 77.4 -89.708 Q54.596 -89.708 38.759 -73.895 Q22.922 -58.082 22.922 -35.307 Q22.922 -25.7 26.326 -16.806 Q29.731 -7.912 35.482 -0.765 Z"/></g><g id="Regular-L" transform="matrix(1 0 0 1 1378.56 1556)"><path d="M77.4 29.27 Q64.016 29.27 52.245 24.191 Q40.474 19.111 31.766 10.404 Q23.059 1.696 17.979 -10.075 Q12.9 -21.846 12.9 -35.23 Q12.9 -48.614 17.979 -60.385 Q23.059 -72.156 31.766 -80.864 Q40.474 -89.571 52.245 -94.651 Q64.016 -99.73 77.4 -99.73 Q90.784 -99.73 102.555 -94.651 Q114.326 -89.571 123.034 -80.864 Q131.741 -72.156 136.821 -60.385 Q141.9 -48.614 141.9 -35.23 Q141.9 -21.846 136.821 -10.075 Q131.741 1.696 123.034 10.404 Q114.326 19.111 102.555 24.191 Q90.784 29.27 77.4 29.27 Z M77.4 19.595 Q100.358 19.595 116.292 3.662 Q132.225 -12.272 132.225 -35.23 Q132.225 -45.012 128.839 -54.069 Q125.453 -63.126 119.325 -70.544 L42.086 6.695 Q49.343 12.984 58.452 16.289 Q67.562 19.595 77.4 19.595 Z M35.636 0.084  112.714 -76.994 Q105.296 -83.282 96.239 -86.669 Q87.182 -90.055 77.4 -90.055 Q54.442 -90.055 38.508 -74.122 Q22.575 -58.188 22.575 -35.23 Q22.575 -25.392 26.123 -16.282 Q29.67 -7.172 35.636 0.084 Z"/></g><g id="Light-L" transform="matrix(1 0 0 1 1082.77 1556)"><path d="M77.411 26.045 Q64.698 26.045 53.513 21.22 Q42.327 16.396 34.053 8.125 Q25.779 -0.146 20.952 -11.326 Q16.125 -22.507 16.125 -35.219 Q16.125 -47.932 20.95 -59.117 Q25.774 -70.303 34.045 -78.577 Q42.316 -86.851 53.496 -91.678 Q64.677 -96.505 77.389 -96.505 Q90.102 -96.505 101.287 -91.68 Q112.473 -86.856 120.747 -78.585 Q129.021 -70.314 133.848 -59.134 Q138.675 -47.953 138.675 -35.241 Q138.675 -22.528 133.85 -11.343 Q129.026 -0.157 120.755 8.117 Q112.484 16.391 101.304 21.218 Q90.123 26.045 77.411 26.045 Z M77.4 18.727 Q99.986 18.727 115.671 3.041 Q131.357 -12.644 131.357 -35.23 Q131.357 -45.133 127.846 -54.223 Q124.336 -63.312 117.961 -70.792 L41.838 5.331 Q49.156 11.867 58.298 15.297 Q67.44 18.727 77.4 18.727 Z M36.939 0.332  112.962 -75.691 Q105.606 -82.228 96.466 -85.707 Q87.325 -89.187 77.4 -89.187 Q54.814 -89.187 39.129 -73.501 Q23.443 -57.816 23.443 -35.23 Q23.443 -25.27 27.053 -16.128 Q30.662 -6.986 36.939 0.332 Z"/></g><g id="Thin-L" transform="matrix(1 0 0 1 787.282 1556)"><path d="M77.422 22.82 Q65.381 22.82 54.78 18.25 Q44.18 13.681 36.339 5.847 Q28.498 -1.987 23.924 -12.577 Q19.35 -23.168 19.35 -35.208 Q19.35 -47.249 23.92 -57.85 Q28.489 -68.45 36.323 -76.291 Q44.157 -84.132 54.747 -88.706 Q65.338 -93.28 77.378 -93.28 Q89.419 -93.28 100.02 -88.71 Q110.62 -84.141 118.461 -76.307 Q126.302 -68.473 130.876 -57.883 Q135.45 -47.292 135.45 -35.252 Q135.45 -23.211 130.88 -12.61 Q126.311 -2.01 118.477 5.831 Q110.643 13.672 100.053 18.246 Q89.462 22.82 77.422 22.82 Z M77.4 17.858 Q99.614 17.858 115.051 2.421 Q130.488 -13.016 130.488 -35.23 Q130.488 -45.255 126.854 -54.377 Q123.22 -63.498 116.596 -71.04 L41.59 3.966 Q48.97 10.751 58.144 14.305 Q67.318 17.858 77.4 17.858 Z M38.241 0.58  113.21 -74.389 Q105.916 -81.174 96.692 -84.746 Q87.469 -88.318 77.4 -88.318 Q55.186 -88.318 39.749 -72.881 Q24.312 -57.444 24.312 -35.23 Q24.312 -25.148 27.983 -15.974 Q31.655 -6.8 38.241 0.58 Z"/></g><g id="Ultralight-L" transform="matrix(1 0 0 1 491.205 1556)"><path d="M77.428 20.885 Q65.79 20.885 55.541 16.468 Q45.292 12.051 37.711 4.48 Q30.13 -3.092 25.707 -13.328 Q21.285 -23.564 21.285 -35.202 Q21.285 -46.84 25.702 -57.089 Q30.119 -67.338 37.69 -74.919 Q45.262 -82.5 55.498 -86.923 Q65.734 -91.345 77.372 -91.345 Q89.01 -91.345 99.259 -86.928 Q109.508 -82.511 117.089 -74.94 Q124.67 -67.368 129.093 -57.132 Q133.515 -46.896 133.515 -35.258 Q133.515 -23.62 129.098 -13.371 Q124.681 -3.122 117.11 4.459 Q109.538 12.04 99.302 16.463 Q89.066 20.885 77.428 20.885 Z M77.4 17.338 Q99.39 17.338 114.679 2.049 Q129.968 -13.24 129.968 -35.23 Q129.968 -45.328 126.259 -54.469 Q122.55 -63.61 115.778 -71.189 L41.441 3.148 Q48.859 10.081 58.052 13.709 Q67.245 17.338 77.4 17.338 Z M39.023 0.729  113.359 -73.607 Q106.103 -80.541 96.829 -84.169 Q87.555 -87.797 77.4 -87.797 Q55.41 -87.797 40.121 -72.509 Q24.832 -57.22 24.832 -35.23 Q24.832 -25.075 28.541 -15.882 Q32.25 -6.689 39.023 0.729 Z"/></g><g id="Bold-M" transform="matrix(1 0 0 1 2281.8 1126)"><path d="M60 19.02 Q48.75 19.02 38.875 14.708 Q29 10.395 21.625 3.02 Q14.25 -4.355 10 -14.292 Q5.75 -24.23 5.75 -35.48 Q5.75 -46.73 10 -56.542 Q14.25 -66.355 21.625 -73.667 Q29 -80.98 38.875 -85.23 Q48.75 -89.48 60 -89.48 Q71.25 -89.48 81.125 -85.23 Q91 -80.98 98.375 -73.667 Q105.75 -66.355 110 -56.542 Q114.25 -46.73 114.25 -35.48 Q114.25 -24.23 110 -14.292 Q105.75 -4.355 98.375 3.02 Q91 10.395 81.125 14.708 Q71.25 19.02 60 19.02 Z M60 3.27 Q76 3.27 87.25 -8.042 Q98.5 -19.355 98.5 -35.48 Q98.5 -41.105 96.938 -46.48 Q95.375 -51.855 92.125 -56.605 L38.75 -3.355 Q43.25 0.145 48.75 1.708 Q54.25 3.27 60 3.27 Z M27.75 -14.355  81 -67.73 Q76.25 -70.855 70.938 -72.292 Q65.625 -73.73 60 -73.73 Q44 -73.73 32.75 -62.605 Q21.5 -51.48 21.5 -35.48 Q21.5 -29.855 23.062 -24.48 Q24.625 -19.105 27.75 -14.355 Z"/></g><g id="Semibold-M" transform="matrix(1 0 0 1 1985.97 1126)"><path d="M60 17.172 Q49.13 17.172 39.581 13.023 Q30.032 8.873 22.929 1.77 Q15.826 -5.333 11.712 -14.917 Q7.598 -24.502 7.598 -35.371 Q7.598 -46.241 11.712 -55.754 Q15.826 -65.268 22.929 -72.336 Q30.032 -79.404 39.581 -83.518 Q49.13 -87.632 60 -87.632 Q70.87 -87.632 80.418 -83.518 Q89.968 -79.404 97.071 -72.336 Q104.174 -65.268 108.288 -55.754 Q112.402 -46.241 112.402 -35.371 Q112.402 -24.502 108.288 -14.917 Q104.174 -5.333 97.071 1.77 Q89.968 8.873 80.418 13.023 Q70.87 17.172 60 17.172 Z M60 3.922 Q76.326 3.922 87.739 -7.526 Q99.152 -18.975 99.152 -35.371 Q99.152 -41.485 97.318 -47.241 Q95.484 -52.996 91.853 -57.964 L37.337 -3.518 Q42.163 0.254 47.989 2.088 Q53.815 3.922 60 3.922 Z M28.076 -12.779  82.522 -67.295 Q77.554 -70.855 71.834 -72.619 Q66.114 -74.382 60 -74.382 Q43.674 -74.382 32.261 -63.04 Q20.848 -51.697 20.848 -35.371 Q20.848 -29.257 22.682 -23.502 Q24.516 -17.746 28.076 -12.779 Z"/></g><g id="Medium-M" transform="matrix(1 0 0 1 1689.91 1126)"><path d="M60 15.786 Q49.416 15.786 40.111 11.759 Q30.807 7.732 23.908 0.833 Q17.008 -6.067 12.996 -15.386 Q8.984 -24.705 8.984 -35.29 Q8.984 -45.874 12.996 -55.163 Q17.008 -64.453 23.908 -71.337 Q30.807 -78.222 40.111 -82.234 Q49.416 -86.246 60 -86.246 Q70.584 -86.246 79.889 -82.234 Q89.193 -78.222 96.092 -71.337 Q102.992 -64.453 107.004 -55.163 Q111.016 -45.874 111.016 -35.29 Q111.016 -24.705 107.004 -15.386 Q102.992 -6.067 96.092 0.833 Q89.193 7.732 79.889 11.759 Q70.584 15.786 60 15.786 Z M60 4.411 Q76.571 4.411 88.106 -7.139 Q99.641 -18.689 99.641 -35.29 Q99.641 -41.771 97.603 -47.811 Q95.565 -53.852 91.65 -58.983 L36.277 -3.64 Q41.348 0.335 47.419 2.373 Q53.489 4.411 60 4.411 Z M28.321 -11.597  83.663 -66.969 Q78.533 -70.855 72.507 -72.863 Q66.481 -74.871 60 -74.871 Q43.429 -74.871 31.894 -63.366 Q20.359 -51.86 20.359 -35.29 Q20.359 -28.809 22.397 -22.768 Q24.435 -16.727 28.321 -11.597 Z"/></g><g id="Regular-M" transform="matrix(1 0 0 1 1394.06 1126)"><path d="M60 14.77 Q49.625 14.77 40.5 10.833 Q31.375 6.895 24.625 0.145 Q17.875 -6.605 13.938 -15.73 Q10 -24.855 10 -35.23 Q10 -45.605 13.938 -54.73 Q17.875 -63.855 24.625 -70.605 Q31.375 -77.355 40.5 -81.292 Q49.625 -85.23 60 -85.23 Q70.375 -85.23 79.5 -81.292 Q88.625 -77.355 95.375 -70.605 Q102.125 -63.855 106.062 -54.73 Q110 -45.605 110 -35.23 Q110 -24.855 106.062 -15.73 Q102.125 -6.605 95.375 0.145 Q88.625 6.895 79.5 10.833 Q70.375 14.77 60 14.77 Z M60 4.77 Q76.75 4.77 88.375 -6.855 Q100 -18.48 100 -35.23 Q100 -41.98 97.812 -48.23 Q95.625 -54.48 91.5 -59.73 L35.5 -3.73 Q40.75 0.395 47 2.583 Q53.25 4.77 60 4.77 Z M28.5 -10.73  84.5 -66.73 Q79.25 -70.855 73 -73.042 Q66.75 -75.23 60 -75.23 Q43.25 -75.23 31.625 -63.605 Q20 -51.98 20 -35.23 Q20 -28.48 22.188 -22.23 Q24.375 -15.98 28.5 -10.73 Z"/></g><g id="Light-M" transform="matrix(1 0 0 1 1098.18 1126)"><path d="M60.008 12.27 Q50.154 12.27 41.483 8.53 Q32.812 4.79 26.398 -1.621 Q19.983 -8.033 16.242 -16.7 Q12.5 -25.367 12.5 -35.222 Q12.5 -45.076 16.24 -53.747 Q19.98 -62.418 26.391 -68.832 Q32.803 -75.247 41.47 -78.988 Q50.137 -82.73 59.992 -82.73 Q69.846 -82.73 78.517 -78.99 Q87.188 -75.25 93.602 -68.839 Q100.017 -62.427 103.758 -53.76 Q107.5 -45.093 107.5 -35.238 Q107.5 -25.384 103.76 -16.713 Q100.02 -8.042 93.609 -1.628 Q87.197 4.787 78.53 8.528 Q69.863 12.27 60.008 12.27 Z M60 4.77 Q76.75 4.77 88.375 -6.855 Q100 -18.48 100 -35.23 Q100 -42.267 97.596 -48.782 Q95.192 -55.297 90.731 -60.692 L34.538 -4.499 Q39.933 0.01 46.448 2.39 Q52.963 4.77 60 4.77 Z M29.269 -9.768  85.462 -65.961 Q80.115 -70.518 73.585 -72.874 Q67.053 -75.23 60 -75.23 Q43.25 -75.23 31.625 -63.605 Q20 -51.98 20 -35.23 Q20 -28.193 22.38 -21.678 Q24.76 -15.163 29.269 -9.768 Z"/></g><g id="Thin-M" transform="matrix(1 0 0 1 802.565 1126)"><path d="M60.017 9.77 Q50.683 9.77 42.465 6.228 Q34.248 2.685 28.17 -3.388 Q22.091 -9.46 18.546 -17.67 Q15 -25.879 15 -35.213 Q15 -44.547 18.542 -52.764 Q22.085 -60.982 28.158 -67.06 Q34.23 -73.138 42.44 -76.684 Q50.649 -80.23 59.983 -80.23 Q69.317 -80.23 77.534 -76.688 Q85.752 -73.145 91.83 -67.072 Q97.909 -61 101.454 -52.79 Q105 -44.581 105 -35.247 Q105 -25.913 101.458 -17.695 Q97.915 -9.478 91.842 -3.4 Q85.77 2.679 77.56 6.224 Q69.351 9.77 60.017 9.77 Z M60 4.77 Q76.75 4.77 88.375 -6.855 Q100 -18.48 100 -35.23 Q100 -42.553 97.38 -49.334 Q94.76 -56.115 89.962 -61.653 L33.577 -5.268 Q39.115 -0.374 45.896 2.198 Q52.677 4.77 60 4.77 Z M30.038 -8.807  86.423 -65.191 Q80.981 -70.182 74.169 -72.706 Q67.357 -75.23 60 -75.23 Q43.25 -75.23 31.625 -63.605 Q20 -51.98 20 -35.23 Q20 -27.907 22.572 -21.126 Q25.144 -14.345 30.038 -8.807 Z"/></g><g id="Ultralight-M" transform="matrix(1 0 0 1 506.415 1126)"><path d="M60.022 8.27 Q51 8.27 43.055 4.846 Q35.11 1.422 29.233 -4.447 Q23.357 -10.317 19.928 -18.252 Q16.5 -26.186 16.5 -35.208 Q16.5 -44.23 19.924 -52.175 Q23.348 -60.12 29.217 -65.996 Q35.087 -71.873 43.022 -75.302 Q50.956 -78.73 59.978 -78.73 Q69 -78.73 76.945 -75.306 Q84.89 -71.882 90.766 -66.013 Q96.644 -60.143 100.072 -52.208 Q103.5 -44.273 103.5 -35.252 Q103.5 -26.23 100.076 -18.285 Q96.652 -10.34 90.783 -4.463 Q84.913 1.414 76.978 4.842 Q69.043 8.27 60.022 8.27 Z M60 4.77 Q76.75 4.77 88.375 -6.855 Q100 -18.48 100 -35.23 Q100 -42.725 97.25 -49.665 Q94.5 -56.605 89.5 -62.23 L33 -5.73 Q38.625 -0.605 45.565 2.083 Q52.505 4.77 60 4.77 Z M30.5 -8.23  87 -64.73 Q81.5 -69.98 74.519 -72.605 Q67.539 -75.23 60 -75.23 Q43.25 -75.23 31.625 -63.605 Q20 -51.98 20 -35.23 Q20 -27.735 22.688 -20.795 Q25.375 -13.855 30.5 -8.23 Z"/></g><g id="Bold-S" transform="matrix(1 0 0 1 2294.23 696)"><path d="M47.34 5.995 Q38.858 5.995 31.363 2.741 Q23.867 -0.514 18.196 -6.185 Q12.525 -11.856 9.32 -19.401 Q6.115 -26.945 6.115 -35.427 Q6.115 -44.008 9.32 -51.404 Q12.525 -58.801 18.196 -64.423 Q23.867 -70.045 31.363 -73.25 Q38.858 -76.455 47.34 -76.455 Q55.92 -76.455 63.367 -73.25 Q70.813 -70.045 76.484 -64.423 Q82.155 -58.801 85.36 -51.404 Q88.565 -44.008 88.565 -35.427 Q88.565 -26.945 85.36 -19.401 Q82.155 -11.856 76.484 -6.185 Q70.813 -0.514 63.367 2.741 Q55.92 5.995 47.34 5.995 Z M47.34 -5.642 Q59.57 -5.642 68.249 -14.371 Q76.928 -23.099 76.928 -35.427 Q76.928 -39.964 75.645 -44.106 Q74.363 -48.248 71.898 -51.799 L30.87 -10.87 Q34.223 -8.207 38.464 -6.925 Q42.705 -5.642 47.34 -5.642 Z M22.684 -19.055  63.613 -60.083 Q60.063 -62.45 55.97 -63.634 Q51.877 -64.817 47.34 -64.817 Q35.111 -64.817 26.431 -56.237 Q17.753 -47.657 17.753 -35.427 Q17.753 -30.89 19.035 -26.748 Q20.317 -22.606 22.684 -19.055 Z"/></g><g id="Semibold-S" transform="matrix(1 0 0 1 1998.1 696)"><path d="M47.34 4.537 Q39.158 4.537 31.92 1.411 Q24.682 -1.715 19.225 -7.171 Q13.769 -12.628 10.671 -19.894 Q7.573 -27.16 7.573 -35.341 Q7.573 -43.622 10.671 -50.783 Q13.769 -57.944 19.225 -63.373 Q24.682 -68.801 31.92 -71.899 Q39.158 -74.997 47.34 -74.997 Q55.62 -74.997 62.809 -71.899 Q69.998 -68.801 75.455 -63.373 Q80.911 -57.944 84.009 -50.783 Q87.107 -43.622 87.107 -35.341 Q87.107 -27.16 84.009 -19.894 Q80.911 -12.628 75.455 -7.171 Q69.998 -1.715 62.809 1.411 Q55.62 4.537 47.34 4.537 Z M47.34 -5.128 Q59.827 -5.128 68.634 -13.963 Q77.442 -22.799 77.442 -35.341 Q77.442 -40.264 75.945 -44.707 Q74.449 -49.149 71.683 -52.871 L29.755 -10.998 Q33.365 -8.121 37.863 -6.625 Q42.362 -5.128 47.34 -5.128 Z M22.941 -17.812  64.814 -59.74 Q61.092 -62.45 56.677 -63.891 Q52.263 -65.332 47.34 -65.332 Q34.853 -65.332 26.046 -56.58 Q17.238 -47.828 17.238 -35.341 Q17.238 -30.419 18.735 -25.976 Q20.231 -21.534 22.941 -17.812 Z"/></g><g id="Medium-S" transform="matrix(1 0 0 1 1701.85 696)"><path d="M47.34 3.444 Q39.384 3.444 32.338 0.414 Q25.293 -2.615 19.997 -7.911 Q14.702 -13.207 11.684 -20.264 Q8.666 -27.321 8.666 -35.277 Q8.666 -43.332 11.684 -50.316 Q14.702 -57.301 19.997 -62.585 Q25.293 -67.868 32.338 -70.886 Q39.384 -73.904 47.34 -73.904 Q55.395 -73.904 62.391 -70.886 Q69.387 -67.868 74.683 -62.585 Q79.978 -57.301 82.996 -50.316 Q86.014 -43.332 86.014 -35.277 Q86.014 -27.321 82.996 -20.264 Q79.978 -13.207 74.683 -7.911 Q69.387 -2.615 62.391 0.414 Q55.395 3.444 47.34 3.444 Z M47.34 -4.742 Q60.02 -4.742 68.924 -13.658 Q77.828 -22.574 77.828 -35.277 Q77.828 -40.489 76.171 -45.157 Q74.513 -49.824 71.522 -53.675 L28.919 -11.095 Q32.722 -8.057 37.413 -6.399 Q42.104 -4.742 47.34 -4.742 Z M23.134 -16.879  65.714 -59.483 Q61.864 -62.45 57.208 -64.084 Q52.552 -65.718 47.34 -65.718 Q34.66 -65.718 25.756 -56.837 Q16.852 -47.957 16.852 -35.277 Q16.852 -30.065 18.509 -25.397 Q20.167 -20.73 23.134 -16.879 Z"/></g><g id="Regular-S" transform="matrix(1 0 0 1 1405.73 696)"><path d="M47.34 2.642 Q39.549 2.642 32.645 -0.317 Q25.741 -3.275 20.563 -8.453 Q15.386 -13.631 12.427 -20.535 Q9.468 -27.439 9.468 -35.23 Q9.468 -43.12 12.427 -49.974 Q15.386 -56.829 20.563 -62.007 Q25.741 -67.184 32.645 -70.143 Q39.549 -73.102 47.34 -73.102 Q55.23 -73.102 62.084 -70.143 Q68.939 -67.184 74.117 -62.007 Q79.294 -56.829 82.253 -49.974 Q85.212 -43.12 85.212 -35.23 Q85.212 -27.439 82.253 -20.535 Q79.294 -13.631 74.117 -8.453 Q68.939 -3.275 62.084 -0.317 Q55.23 2.642 47.34 2.642 Z M47.34 -4.459 Q60.161 -4.459 69.136 -13.434 Q78.111 -22.409 78.111 -35.23 Q78.111 -40.654 76.336 -45.487 Q74.561 -50.32 71.404 -54.265 L28.305 -11.165 Q32.25 -8.009 37.083 -6.234 Q41.916 -4.459 47.34 -4.459 Z M23.276 -16.195  66.375 -59.294 Q62.43 -62.45 57.597 -64.226 Q52.764 -66.001 47.34 -66.001 Q34.519 -66.001 25.544 -57.026 Q16.569 -48.051 16.569 -35.23 Q16.569 -29.806 18.344 -24.973 Q20.12 -20.14 23.276 -16.195 Z"/></g><g id="Light-S" transform="matrix(1 0 0 1 1109.75 696)"><path d="M47.347 0.669 Q39.966 0.669 33.42 -2.134 Q26.875 -4.936 21.962 -9.847 Q17.049 -14.758 14.245 -21.3 Q11.441 -27.843 11.441 -35.223 Q11.441 -42.703 14.244 -49.199 Q17.046 -55.695 21.957 -60.608 Q26.868 -65.521 33.41 -68.325 Q39.953 -71.129 47.333 -71.129 Q54.813 -71.129 61.309 -68.326 Q67.805 -65.524 72.718 -60.613 Q77.631 -55.702 80.435 -49.209 Q83.239 -42.716 83.239 -35.237 Q83.239 -27.856 80.436 -21.31 Q77.634 -14.765 72.723 -9.852 Q67.812 -4.939 61.319 -2.135 Q54.826 0.669 47.347 0.669 Z M47.34 -4.459 Q60.161 -4.459 69.136 -13.434 Q78.111 -22.409 78.111 -35.23 Q78.111 -40.881 76.165 -45.923 Q74.219 -50.965 70.798 -55.023 L27.547 -11.772 Q31.605 -8.313 36.647 -6.386 Q41.689 -4.459 47.34 -4.459 Z M23.882 -15.437  67.133 -58.688 Q63.113 -62.185 58.058 -64.093 Q53.004 -66.001 47.34 -66.001 Q34.519 -66.001 25.544 -57.026 Q16.569 -48.051 16.569 -35.23 Q16.569 -29.579 18.496 -24.537 Q20.423 -19.495 23.882 -15.437 Z"/></g><g id="Thin-S" transform="matrix(1 0 0 1 814.015 696)"><path d="M47.353 -1.303 Q40.383 -1.303 34.196 -3.95 Q28.008 -6.597 23.36 -11.241 Q18.712 -15.884 16.063 -22.065 Q13.413 -28.247 13.413 -35.217 Q13.413 -42.286 16.06 -48.424 Q18.707 -54.562 23.351 -59.21 Q27.994 -63.858 34.175 -66.507 Q40.357 -69.157 47.327 -69.157 Q54.396 -69.157 60.534 -66.51 Q66.672 -63.863 71.32 -59.219 Q75.968 -54.576 78.617 -48.444 Q81.267 -42.312 81.267 -35.243 Q81.267 -28.273 78.62 -22.086 Q75.973 -15.898 71.329 -11.25 Q66.686 -6.602 60.554 -3.953 Q54.422 -1.303 47.353 -1.303 Z M47.34 -4.459 Q60.161 -4.459 69.136 -13.434 Q78.111 -22.409 78.111 -35.23 Q78.111 -41.107 75.994 -46.358 Q73.878 -51.609 70.191 -55.782 L26.788 -12.379 Q30.961 -8.616 36.212 -6.538 Q41.463 -4.459 47.34 -4.459 Z M24.489 -14.678  67.892 -58.081 Q63.795 -61.919 58.519 -63.96 Q53.243 -66.001 47.34 -66.001 Q34.519 -66.001 25.544 -57.026 Q16.569 -48.051 16.569 -35.23 Q16.569 -29.353 18.648 -24.102 Q20.726 -18.851 24.489 -14.678 Z"/></g><g id="Ultralight-S" transform="matrix(1 0 0 1 517.792 696)"><path d="M47.357 -2.486 Q40.634 -2.486 34.661 -5.04 Q28.688 -7.594 24.199 -12.077 Q19.71 -16.56 17.153 -22.525 Q14.597 -28.489 14.597 -35.213 Q14.597 -42.035 17.15 -47.958 Q19.704 -53.882 24.187 -58.371 Q28.67 -62.86 34.635 -65.417 Q40.599 -67.973 47.323 -67.973 Q54.145 -67.973 60.068 -65.42 Q65.992 -62.866 70.481 -58.383 Q74.97 -53.9 77.527 -47.985 Q80.084 -42.069 80.084 -35.247 Q80.084 -28.523 77.53 -22.551 Q74.976 -16.578 70.493 -12.089 Q66.01 -7.6 60.095 -5.043 Q54.179 -2.486 47.357 -2.486 Z M47.34 -4.459 Q60.161 -4.459 69.136 -13.434 Q78.111 -22.409 78.111 -35.23 Q78.111 -41.242 75.892 -46.619 Q73.673 -51.996 69.827 -56.237 L26.333 -12.743 Q30.574 -8.798 35.951 -6.629 Q41.328 -4.459 47.34 -4.459 Z M24.854 -14.223  68.347 -57.716 Q64.205 -61.76 58.796 -63.881 Q53.387 -66.001 47.34 -66.001 Q34.519 -66.001 25.544 -57.026 Q16.569 -48.051 16.569 -35.23 Q16.569 -29.218 18.739 -23.841 Q20.909 -18.464 24.854 -14.223 Z"/></g></g></svg>